<?xml version="1.0" standalone="no"?>
<!DOCTYPE svg PUBLIC "-//W3C//DTD SVG 20010904//EN"
 "http://www.w3.org/TR/2001/REC-SVG-20010904/DTD/svg10.dtd">
<svg version="1.0" xmlns="http://www.w3.org/2000/svg"
 width="426.000000pt" height="426.000000pt" viewBox="0 0 426.000000 426.000000"
 preserveAspectRatio="xMidYMid meet">
<metadata>
Created by potrace 1.11, written by Peter Selinger 2001-2013
</metadata>
<g transform="translate(0.000000,426.000000) scale(0.100000,-0.100000)"
fill="#000000" stroke="none">
<path d="M2470 4230 c-41 -10 -122 -38 -180 -63 -58 -24 -121 -47 -140 -51
-19 -3 -78 -35 -130 -70 -52 -35 -109 -68 -127 -74 -17 -6 -49 -29 -69 -52
-21 -23 -83 -74 -138 -113 -123 -88 -210 -168 -247 -226 -15 -23 -46 -59 -69
-79 -23 -19 -66 -70 -97 -113 -30 -43 -59 -81 -64 -85 -5 -3 -23 -33 -40 -67
-17 -34 -57 -100 -89 -147 -31 -47 -63 -103 -70 -125 -7 -22 -46 -105 -87
-185 -56 -111 -77 -163 -88 -221 -7 -43 -29 -127 -49 -187 -72 -230 -96 -409
-91 -702 2 -147 7 -192 28 -280 37 -152 62 -214 107 -256 21 -20 44 -49 50
-63 8 -18 33 -37 78 -58 37 -18 90 -46 119 -63 78 -47 155 -70 272 -82 139
-14 138 -14 264 10 145 29 276 74 369 128 43 24 88 48 100 53 13 5 70 46 128
91 170 133 349 244 366 227 1 -1 6 -52 9 -112 5 -79 2 -133 -8 -190 -9 -44
-23 -125 -32 -180 -9 -55 -25 -132 -36 -171 -11 -40 -24 -118 -29 -175 -5 -57
-14 -122 -19 -144 -6 -22 -13 -80 -17 -130 -3 -50 -12 -109 -20 -133 -16 -50
-4 -119 22 -129 49 -19 146 51 164 117 9 33 15 38 65 54 103 32 164 112 190
249 15 77 24 103 79 237 20 47 36 98 36 113 0 15 11 54 25 87 14 32 38 105 54
162 16 57 52 168 80 247 28 79 58 180 66 225 7 44 21 101 30 126 9 25 18 72
22 105 3 33 12 85 19 115 17 67 18 147 1 179 -18 38 -64 59 -173 82 l-99 21
-65 -21 c-83 -26 -180 -113 -309 -274 -50 -63 -110 -127 -133 -142 -49 -33
-184 -150 -243 -213 -23 -23 -44 -42 -48 -42 -3 0 -50 -25 -104 -57 -142 -82
-228 -119 -315 -137 -155 -32 -223 -17 -350 79 -81 62 -88 70 -116 138 -104
250 -114 460 -41 837 52 269 49 258 109 389 28 62 58 143 65 178 7 36 21 74
30 86 49 68 77 117 90 160 8 27 27 63 42 80 15 18 53 75 83 127 43 75 81 121
180 221 69 69 150 144 180 167 97 71 263 153 353 172 75 17 90 17 172 4 112
-18 169 -45 204 -96 14 -22 58 -80 97 -131 39 -51 79 -107 88 -125 18 -35 20
-44 55 -242 32 -182 48 -227 84 -240 48 -16 114 -12 160 11 40 21 162 115 194
151 8 9 31 33 50 54 32 34 35 43 37 108 2 51 -2 81 -14 106 -10 19 -23 62 -30
95 -8 35 -23 71 -37 86 -12 14 -23 33 -23 42 0 30 -40 123 -68 159 -66 85
-218 251 -241 263 -14 7 -85 34 -157 59 -122 43 -137 46 -196 40 -47 -5 -73
-2 -102 10 -49 21 -122 19 -216 -4z"/>
</g>
</svg>
